<svg width="173" height="64" viewBox="0 0 173 64" fill="none" xmlns="http://www.w3.org/2000/svg">
<g clip-path="url(#clip0_200_4114)">
<path d="M165.88 64H7.65125C3.85713 64 0.765625 60.9291 0.765625 57.1603V6.90949C0.765625 3.07088 3.85713 0 7.65125 0H165.88C169.674 0 172.766 3.07088 172.766 6.8397V57.0905C172.766 60.9291 169.674 64 165.88 64Z" fill="#2600FF"/>
<path d="M51.1431 42.9225C52.5483 42.9225 53.532 43.2715 54.1644 43.9694C54.7967 44.6674 55.0778 45.9236 55.0778 47.6685C55.0778 49.4133 54.7264 50.6695 54.0238 51.3675C53.3212 52.0654 52.0565 52.4144 50.2297 52.4144C49.8784 52.4144 48.6137 52.3446 47.7003 52.2748C47.068 52.205 46.5059 51.7164 46.5059 51.0185V41.1079C46.5059 40.4798 46.9977 40.061 47.5598 40.061C48.1921 40.061 48.6137 40.5496 48.6137 41.1079V43.4809C49.5974 43.0621 50.4405 42.9225 51.1431 42.9225ZM50.1595 50.5997C51.2134 50.5997 51.916 50.3904 52.3376 49.9018C52.6889 49.4133 52.8996 48.6455 52.8996 47.5987C52.8996 46.5518 52.7591 45.7143 52.4781 45.2955C52.197 44.8767 51.7052 44.5976 51.0026 44.5976C50.3702 44.5976 49.7379 44.6674 49.0353 44.8767L48.684 44.9465V50.4602C49.3866 50.5998 49.8784 50.5997 50.1595 50.5997Z" fill="white"/>
<path d="M57.6777 43.1318C58.1696 43.1318 58.5209 43.411 58.6614 43.8996L60.5584 50.3903C60.6287 50.6695 61.1205 50.6695 61.1908 50.3903L63.0879 43.8996C63.2284 43.4808 63.65 43.1318 64.0715 43.1318C64.7741 43.1318 65.266 43.76 65.0552 44.4579L61.8232 55.4154C61.6826 55.8341 61.3313 56.1133 60.8395 56.1133C60.1369 56.1133 59.6451 55.4154 59.8558 54.7872L60.6287 52.4143H60.2071C59.4343 52.4143 58.7317 51.9257 58.5209 51.158L56.5536 44.3881C56.4833 43.76 56.9751 43.1318 57.6777 43.1318Z" fill="white"/>
<path d="M88.8733 50.53L89.4354 50.4602V50.879C89.4354 51.5071 89.0138 51.9956 88.3814 52.0654C87.2573 52.205 86.2736 52.3446 85.3602 52.3446C83.8847 52.3446 82.8308 51.9956 82.1282 51.2279C81.4958 50.4602 81.1445 49.2737 81.1445 47.6685C81.1445 44.458 82.62 42.8528 85.5007 42.8528C88.3112 42.8528 89.7164 44.2486 89.7164 47.0404C89.6462 47.8779 88.9435 48.4362 88.1707 48.4362H83.3929C83.3929 49.2039 83.6037 49.7623 83.955 50.1112C84.3063 50.4602 84.9386 50.6696 85.9223 50.6696C86.906 50.6696 87.8896 50.5998 88.8733 50.53ZM87.6788 46.9706C87.6788 46.0633 87.5383 45.4351 87.187 45.0862C86.906 44.7372 86.3439 44.5278 85.571 44.5278C84.7981 44.5278 84.3063 44.7372 83.955 45.0862C83.6037 45.4351 83.4632 46.0633 83.3929 46.9706H87.6788Z" fill="white"/>
<path d="M99.8338 50.53V51.0186C99.8338 51.5769 99.4123 52.0655 98.8502 52.1353C97.726 52.2748 96.6721 52.4144 95.7587 52.4144C94.2832 52.4144 93.2292 52.0655 92.5266 51.2977C91.8943 50.53 91.543 49.3435 91.543 47.7383C91.543 44.5278 93.0185 42.9226 95.8992 42.9226C98.7096 42.9226 100.115 44.3185 100.115 47.1102C100.045 47.9477 99.342 48.506 98.5691 48.506H93.7913C93.7913 49.2738 94.0021 49.8321 94.3534 50.1811C94.7047 50.53 95.3371 50.7394 96.3207 50.7394C97.2341 50.6696 99.8338 50.53 99.8338 50.53ZM98.007 46.9706C98.007 46.0633 97.8665 45.4351 97.5152 45.0862C97.2341 44.7372 96.6721 44.5278 95.8992 44.5278C95.1263 44.5278 94.6345 44.7372 94.2832 45.0862C93.9319 45.4351 93.7913 46.0633 93.7211 46.9706H98.007Z" fill="white"/>
<path d="M109.882 45.9237V50.0415C109.882 50.3206 109.952 50.53 110.093 50.5998C110.233 50.6696 110.444 50.8092 110.725 50.879V51.2977C110.725 51.9259 110.163 52.4144 109.531 52.2748C108.898 52.205 108.406 51.9957 108.055 51.7165C107.001 52.1353 105.877 52.4144 104.823 52.4144C102.856 52.4144 101.802 51.4373 101.802 49.5529C101.802 48.6456 102.083 47.9477 102.645 47.5289C103.207 47.1102 104.05 46.9008 105.174 46.7612L107.774 46.5518V45.9237C107.774 45.4351 107.633 45.0862 107.423 44.8768C107.212 44.6674 106.861 44.5976 106.369 44.5976C105.526 44.5976 104.401 44.6674 103.137 44.7372L102.504 44.807V44.2487C102.504 43.7601 102.785 43.3414 103.277 43.2018C104.401 42.9924 105.455 42.9226 106.439 42.9226C107.633 42.9226 108.547 43.132 109.109 43.6205C109.601 44.1091 109.882 44.8768 109.882 45.9237ZM105.385 48.1571C104.472 48.2269 103.98 48.7154 103.98 49.5529C103.98 50.3904 104.401 50.8092 105.174 50.8092C105.877 50.8092 106.58 50.7394 107.282 50.53L107.633 50.3904V47.9477L105.385 48.1571Z" fill="white"/>
<path d="M113.887 52.4144C113.255 52.4144 112.763 51.9259 112.763 51.3675V44.458C112.763 43.6903 113.044 43.132 113.817 43.132C114.73 43.132 114.941 43.6903 114.941 43.6903C115.924 43.2018 116.768 42.9226 117.54 42.9226C118.735 42.9226 119.578 43.2018 120.07 43.8299C121.264 43.2018 122.529 42.9226 123.724 42.9226C124.918 42.9226 125.761 43.2716 126.253 43.8997C126.745 44.5976 127.026 45.7143 127.026 47.3196V51.3675C127.026 51.9957 126.534 52.4144 125.972 52.4144C125.34 52.4144 124.918 51.9259 124.918 51.3675V47.3893C124.918 46.4122 124.777 45.7143 124.567 45.2956C124.356 44.8768 123.864 44.6674 123.161 44.6674C122.529 44.6674 121.897 44.807 121.194 45.0164L120.843 45.156C120.983 45.3654 120.983 46.2029 120.983 47.4591V51.3675C120.983 51.9957 120.562 52.4144 119.929 52.4144C119.297 52.4144 118.805 51.9259 118.805 51.3675V47.5289C118.805 46.482 118.665 45.7143 118.454 45.2956C118.243 44.8768 117.751 44.6674 117.049 44.6674C116.346 44.6674 115.784 44.807 115.152 45.0164L114.871 45.156V51.3675C115.011 51.9957 114.519 52.4144 113.887 52.4144Z" fill="white"/>
<path d="M71.6598 41.3174C72.2219 41.3174 72.6435 41.6663 72.7138 42.0851L75.0324 50.2508C75.1729 50.5998 75.6647 50.5998 75.8053 50.2508L77.9834 42.0153C78.1239 41.5267 78.5454 41.2476 79.0373 41.2476C79.7399 41.2476 80.2317 41.9455 80.0912 42.5736L77.8428 51.0883C77.632 51.8561 76.9294 52.3446 76.1566 52.3446H74.8919C74.119 52.3446 73.4164 51.8561 73.2056 51.0883L70.7464 42.5736C70.4654 42.0153 70.9572 41.3174 71.6598 41.3174Z" fill="white"/>
<path d="M72.2218 30.1505C71.2381 30.1505 70.4653 30.9182 70.4653 31.9651C70.4653 32.5234 70.676 33.012 70.9571 33.361C71.3084 33.7099 71.73 33.8495 72.1515 33.8495H81.2855C84.7284 33.8495 87.2578 31.4068 87.2578 28.0567C87.2578 24.7066 84.6581 22.0545 81.3558 22.0545H75.7349C74.2594 22.0545 73.2757 21.217 73.2757 19.9607C73.2757 18.6347 74.2594 17.7972 75.7349 17.7972H84.7986C85.9228 17.7972 86.5552 16.8201 86.5552 15.9128C86.5552 14.8659 85.7823 14.0981 84.7986 14.0981H75.6646C72.2218 14.0981 69.6924 16.6107 69.6924 19.9607C69.6924 23.241 72.2921 25.7535 75.6646 25.7535H81.2153C82.6908 25.7535 83.6744 26.6608 83.6744 28.0567C83.6744 29.3828 82.761 30.2203 81.2153 30.2203H72.2218V30.1505Z" fill="white"/>
<path d="M108.056 15.8432C108.056 16.8203 107.142 17.6578 106.088 17.6578H102.716H100.608V31.8955C100.608 32.9424 99.6945 33.8497 98.6406 33.8497C97.5867 33.8497 96.6733 32.9424 96.6733 31.8955V17.6578H94.9168H91.1929C90.139 17.6578 89.2256 16.8203 89.2256 15.8432C89.2256 14.8661 90.139 14.0286 91.1929 14.0286H94.9168H98.0785H98.2893H102.646H106.018C107.213 14.0286 108.056 14.8661 108.056 15.8432Z" fill="white"/>
<path d="M128.009 32.1049C128.009 33.082 127.096 33.9195 126.042 33.9195H122.599H119.297H118.945H116.556H116.205H115.292C115.292 33.9195 113.957 33.9195 113.465 33.7101C113.114 33.5705 112.833 33.5008 112.552 33.2914C111.568 32.6632 110.935 31.5466 110.865 30.2903V30.1507V29.7319V28.9642V26.8006V25.6142C110.865 24.2881 111.498 23.1714 112.552 22.5433C112.833 22.3339 113.184 22.2641 113.465 22.1245C113.957 21.9152 115.292 21.9849 115.292 21.9849H116.205H116.556H118.945H119.297H122.599H126.042C127.096 21.9849 128.009 22.8225 128.009 23.7996C128.009 24.7767 127.096 25.6142 126.042 25.6142H122.599H119.297H118.945H116.556H115.854C115.151 25.6142 114.589 25.8235 114.589 26.6611V29.2434C114.589 29.9413 115.292 30.2903 115.854 30.2903H116.556H118.945H119.297H122.599H126.042C127.096 30.2903 128.009 31.058 128.009 32.1049ZM125.971 14.0286H122.599H119.297H118.945H116.556H112.833C111.779 14.0286 110.865 14.8661 110.865 15.8432C110.865 16.8203 111.779 17.6578 112.833 17.6578H116.556H118.945H119.297H122.669H126.042C127.096 17.6578 128.009 16.8203 128.009 15.8432C127.939 14.8661 127.096 14.0286 125.971 14.0286Z" fill="white"/>
<path d="M28.0977 15.9828V22.5433V25.335V31.8955C28.0977 32.9424 27.1843 33.8497 26.1304 33.8497C25.0765 33.8497 24.1631 32.9424 24.1631 31.8955V25.335V22.5433V15.9828C24.1631 14.9359 25.0765 14.0286 26.1304 14.0286C27.1843 14.0286 28.0977 14.9359 28.0977 15.9828Z" fill="white"/>
<path d="M34.7019 23.939L42.2199 17.5181C42.9225 16.89 43.2036 15.8431 42.7117 15.0056C42.0794 13.8889 40.6039 13.6795 39.6905 14.4472L29.2918 23.3807C28.9405 23.6599 28.9405 24.1484 29.2918 24.4276L39.6202 33.2913C40.3228 33.9194 41.447 33.9892 42.1496 33.4309C43.1333 32.6631 43.1333 31.1975 42.2199 30.4298L34.7019 23.939Z" fill="white"/>
<path d="M149.44 15.9828V30.2205C149.44 32.4539 148.386 33.9195 146.418 33.9195C144.311 33.9195 143.538 32.6632 142.694 31.4768L134.755 18.9141V31.9653C134.755 33.0122 133.842 33.8497 132.788 33.8497C131.734 33.8497 130.82 33.0122 130.82 31.8955V17.7276C130.82 15.6338 132.296 14.0286 134.193 14.0286C135.528 14.0286 136.722 15.0057 137.425 15.9828C137.495 16.1223 145.575 28.8944 145.575 28.8944V15.913C145.575 15.215 146.278 14.0984 147.543 14.0984C148.526 14.0984 149.44 14.9359 149.44 15.9828Z" fill="white"/>
<path d="M67.3735 30.7788L60.6284 16.6807C59.9961 15.0057 58.7313 14.0286 56.764 14.0286C55.148 14.0286 53.7428 14.8661 52.9699 16.6807L46.2951 30.4997C44.9601 32.9424 47.2085 33.8497 47.8408 33.7799C48.6137 33.7799 49.3163 33.2914 49.6676 32.5237C49.9487 31.8955 51.4242 28.8246 51.4242 28.8246H56.764C57.8179 28.8246 58.5908 27.9173 58.5908 26.8704C58.5908 25.8235 57.7477 24.9162 56.764 24.9162H53.251L56.3425 18.6349V18.5651C56.4127 18.3557 56.5532 18.2161 56.6235 18.1463C56.6938 18.1463 56.8343 18.1463 56.9046 18.1463C57.0451 18.2161 57.1856 18.4255 57.2559 18.6349L63.9307 32.5237C64.2117 33.082 65.3359 34.3383 66.9519 33.3612C67.7248 32.8726 67.9356 31.7559 67.3735 30.7788Z" fill="white"/>
</g>
<defs>
<clipPath id="clip0_200_4114">
<rect width="172" height="64" fill="white" transform="translate(0.765625)"/>
</clipPath>
</defs>
</svg>
